# xmcd
#
# Track frame offsets:
#	150
#	41480
#	59952
#	91855
#	123800
#	158935
#	188917
#	232010
#	272412
#	304387
#	329020
#
# Disc length: 4713 seconds
# Revision: 0
# Processed by: cddbd v1.5.2PL0 Copyright (c) Steve Scherf et al.
# Submitted via: dBpowerAMP V12.0
#
DISCID=9d12670b
DTITLE=Samantha Mumba - Lately
DYEAR=2001
DGENRE=House
TTITLE0=Lately [Almighty Mix]
TTITLE1=Lately [Craig J's Jump Mix]
TTITLE2=Lately [Stuntmasterz Vocal Mix]
TTITLE3=Lately [Ralphi's Vox 12"]
TTITLE4=Lately [Ralphi's Tech-House Dub]
TTITLE5=Lately [Stuntmasterz Dub]
TTITLE6=Lately [Ralphie's Tribe Dub]
TTITLE7=Lately [São Benitez Remix]
TTITLE8=Lately [Junior Jack Remix]
TTITLE9=Lately [Blacksmith Club Rub]
TTITLE10=Lately [Blacksmith Club Dub]
EXTD=
EXTT0=
EXTT1=
EXTT2=
EXTT3=
EXTT4=
EXTT5=
EXTT6=
EXTT7=
EXTT8=
EXTT9=
EXTT10=
PLAYORDER=
